<mxfile host="app.diagrams.net" agent="5.0 (Windows)" version="24.7.17">
  <diagram name="AI-Driven Test Automation Framework" id="ai-framework-architecture">
    <mxGraphModel dx="1422" dy="765" grid="1" gridSize="10" guides="1" tooltips="1" connect="1" arrows="1" fold="1" page="1" pageScale="1" pageWidth="1169" pageHeight="827" math="0" shadow="0">
      <root>
        <mxCell id="0" />
        <mxCell id="1" parent="0" />
        
        <!-- Title -->
        <mxCell id="title" value="AI-Driven Test Automation Framework Architecture" style="text;html=1;align=center;verticalAlign=middle;whiteSpace=wrap;rounded=0;fontSize=20;fontStyle=1;fillColor=#e1d5e7;strokeColor=#9673a6;" vertex="1" parent="1">
          <mxGeometry x="350" y="20" width="470" height="40" as="geometry" />
        </mxCell>

        <!-- Input Layer -->
        <mxCell id="input-layer" value="INPUT LAYER" style="rounded=1;whiteSpace=wrap;html=1;fontSize=14;fontStyle=1;fillColor=#dae8fc;strokeColor=#6c8ebf;verticalAlign=top;" vertex="1" parent="1">
          <mxGeometry x="80" y="100" width="200" height="120" as="geometry" />
        </mxCell>
        
        <mxCell id="test-cases" value="📝 Test Cases&#xa;&#xa;• Manual Test Scenarios&#xa;• Business Requirements&#xa;• User Stories&#xa;• Acceptance Criteria" style="rounded=1;whiteSpace=wrap;html=1;fontSize=11;fillColor=#f8cecc;strokeColor=#b85450;" vertex="1" parent="1">
          <mxGeometry x="90" y="130" width="180" height="80" as="geometry" />
        </mxCell>

        <!-- AI Generation Layer -->
        <mxCell id="ai-layer" value="AI GENERATION LAYER" style="rounded=1;whiteSpace=wrap;html=1;fontSize=14;fontStyle=1;fillColor=#fff2cc;strokeColor=#d6b656;verticalAlign=top;" vertex="1" parent="1">
          <mxGeometry x="380" y="100" width="400" height="300" as="geometry" />
        </mxCell>

        <!-- AI Tools -->
        <mxCell id="github-copilot" value="🤖 GitHub Copilot&#xa;&#xa;• Code Generation&#xa;• Step Definitions&#xa;• Page Object Methods&#xa;• Test Logic" style="rounded=1;whiteSpace=wrap;html=1;fontSize=11;fillColor=#e1d5e7;strokeColor=#9673a6;" vertex="1" parent="1">
          <mxGeometry x="390" y="130" width="120" height="80" as="geometry" />
        </mxCell>

        <mxCell id="claude-sonnet" value="🧠 Claude Sonnet&#xa;&#xa;• Feature File Creation&#xa;• Gherkin Scenarios&#xa;• BDD Structure&#xa;• Test Planning" style="rounded=1;whiteSpace=wrap;html=1;fontSize=11;fillColor=#e1d5e7;strokeColor=#9673a6;" vertex="1" parent="1">
          <mxGeometry x="530" y="130" width="120" height="80" as="geometry" />
        </mxCell>

        <mxCell id="playwright-mcp" value="🎭 Playwright MCP&#xa;&#xa;• Page Objects&#xa;• Element Selectors&#xa;• Browser Actions&#xa;• UI Interactions" style="rounded=1;whiteSpace=wrap;html=1;fontSize=11;fillColor=#e1d5e7;strokeColor=#9673a6;" vertex="1" parent="1">
          <mxGeometry x="650" y="130" width="120" height="80" as="geometry" />
        </mxCell>

        <!-- Generated Components -->
        <mxCell id="feature-files" value="🥒 Feature Files&#xa;(.feature)&#xa;&#xa;• Gherkin Scenarios&#xa;• Given-When-Then" style="rounded=1;whiteSpace=wrap;html=1;fontSize=10;fillColor=#d5e8d4;strokeColor=#82b366;" vertex="1" parent="1">
          <mxGeometry x="390" y="240" width="110" height="70" as="geometry" />
        </mxCell>

        <mxCell id="step-definitions" value="📝 Step Definitions&#xa;(.js)&#xa;&#xa;• Test Implementation&#xa;• Cucumber Steps" style="rounded=1;whiteSpace=wrap;html=1;fontSize=10;fillColor=#d5e8d4;strokeColor=#82b366;" vertex="1" parent="1">
          <mxGeometry x="520" y="240" width="110" height="70" as="geometry" />
        </mxCell>

        <mxCell id="page-objects" value="🏗️ Page Objects&#xa;(.js)&#xa;&#xa;• UI Interactions&#xa;• Element Locators" style="rounded=1;whiteSpace=wrap;html=1;fontSize=10;fillColor=#d5e8d4;strokeColor=#82b366;" vertex="1" parent="1">
          <mxGeometry x="650" y="240" width="110" height="70" as="geometry" />
        </mxCell>

        <!-- Framework Execution -->
        <mxCell id="execution-layer" value="EXECUTION LAYER" style="rounded=1;whiteSpace=wrap;html=1;fontSize=14;fontStyle=1;fillColor=#f0f0f0;strokeColor=#666666;verticalAlign=top;" vertex="1" parent="1">
          <mxGeometry x="380" y="450" width="400" height="120" as="geometry" />
        </mxCell>

        <mxCell id="cucumber-engine" value="🥒 Cucumber.js&#xa;BDD Engine" style="rounded=1;whiteSpace=wrap;html=1;fontSize=11;fillColor=#ffe6cc;strokeColor=#d79b00;" vertex="1" parent="1">
          <mxGeometry x="400" y="480" width="100" height="50" as="geometry" />
        </mxCell>

        <mxCell id="playwright-engine" value="🎭 Playwright&#xa;Browser Engine" style="rounded=1;whiteSpace=wrap;html=1;fontSize=11;fillColor=#ffe6cc;strokeColor=#d79b00;" vertex="1" parent="1">
          <mxGeometry x="530" y="480" width="100" height="50" as="geometry" />
        </mxCell>

        <mxCell id="test-runner" value="⚙️ Test Runner&#xa;Execution Control" style="rounded=1;whiteSpace=wrap;html=1;fontSize=11;fillColor=#ffe6cc;strokeColor=#d79b00;" vertex="1" parent="1">
          <mxGeometry x="660" y="480" width="100" height="50" as="geometry" />
        </mxCell>

        <!-- Output Layer -->
        <mxCell id="output-layer" value="OUTPUT LAYER" style="rounded=1;whiteSpace=wrap;html=1;fontSize=14;fontStyle=1;fillColor=#dae8fc;strokeColor=#6c8ebf;verticalAlign=top;" vertex="1" parent="1">
          <mxGeometry x="880" y="100" width="200" height="300" as="geometry" />
        </mxCell>

        <mxCell id="html-reports" value="📊 HTML Reports&#xa;&#xa;• Test Results&#xa;• Pass/Fail Status&#xa;• Execution Summary&#xa;• Visual Dashboard" style="rounded=1;whiteSpace=wrap;html=1;fontSize=11;fillColor=#f8cecc;strokeColor=#b85450;" vertex="1" parent="1">
          <mxGeometry x="890" y="130" width="180" height="80" as="geometry" />
        </mxCell>

        <mxCell id="logs" value="📝 Logs&#xa;&#xa;• Application Logs&#xa;• Error Logs&#xa;• Page Action Logs&#xa;• Debug Information" style="rounded=1;whiteSpace=wrap;html=1;fontSize=11;fillColor=#f8cecc;strokeColor=#b85450;" vertex="1" parent="1">
          <mxGeometry x="890" y="230" width="180" height="80" as="geometry" />
        </mxCell>

        <mxCell id="screenshots" value="📸 Screenshots&#xa;&#xa;• Test Evidence&#xa;• Failure Captures&#xa;• Step-by-step Images&#xa;• Debug Visuals" style="rounded=1;whiteSpace=wrap;html=1;fontSize=11;fillColor=#f8cecc;strokeColor=#b85450;" vertex="1" parent="1">
          <mxGeometry x="890" y="330" width="180" height="80" as="geometry" />
        </mxCell>

        <!-- Target Application -->
        <mxCell id="target-app" value="🌐 Target Application&#xa;&#xa;Web Application Under Test" style="rounded=1;whiteSpace=wrap;html=1;fontSize=12;fillColor=#e1f5fe;strokeColor=#0277bd;" vertex="1" parent="1">
          <mxGeometry x="480" y="620" width="200" height="80" as="geometry" />
        </mxCell>

        <!-- Flow Arrows -->
        
        <!-- Input to AI Tools -->
        <mxCell id="arrow1" value="" style="endArrow=classic;html=1;rounded=0;entryX=0;entryY=0.5;entryDx=0;entryDy=0;exitX=1;exitY=0.5;exitDx=0;exitDy=0;strokeWidth=2;strokeColor=#d6b656;" edge="1" parent="1" source="test-cases" target="github-copilot">
          <mxGeometry width="50" height="50" relative="1" as="geometry">
            <mxPoint x="290" y="170" as="sourcePoint" />
            <mxPoint x="340" y="120" as="targetPoint" />
          </mxGeometry>
        </mxCell>

        <mxCell id="arrow2" value="" style="endArrow=classic;html=1;rounded=0;entryX=0;entryY=0.5;entryDx=0;entryDy=0;exitX=1;exitY=0.5;exitDx=0;exitDy=0;strokeWidth=2;strokeColor=#d6b656;" edge="1" parent="1" source="test-cases" target="claude-sonnet">
          <mxGeometry width="50" height="50" relative="1" as="geometry">
            <mxPoint x="290" y="170" as="sourcePoint" />
            <mxPoint x="340" y="120" as="targetPoint" />
          </mxGeometry>
        </mxCell>

        <mxCell id="arrow3" value="" style="endArrow=classic;html=1;rounded=0;entryX=0;entryY=0.5;entryDx=0;entryDy=0;exitX=1;exitY=0.5;exitDx=0;exitDy=0;strokeWidth=2;strokeColor=#d6b656;" edge="1" parent="1" source="test-cases" target="playwright-mcp">
          <mxGeometry width="50" height="50" relative="1" as="geometry">
            <mxPoint x="290" y="170" as="sourcePoint" />
            <mxPoint x="340" y="120" as="targetPoint" />
          </mxGeometry>
        </mxCell>

        <!-- AI Tools to Generated Components -->
        <mxCell id="arrow4" value="" style="endArrow=classic;html=1;rounded=0;entryX=0.5;entryY=0;entryDx=0;entryDy=0;exitX=0.5;exitY=1;exitDx=0;exitDy=0;strokeWidth=2;strokeColor=#82b366;" edge="1" parent="1" source="claude-sonnet" target="feature-files">
          <mxGeometry width="50" height="50" relative="1" as="geometry">
            <mxPoint x="590" y="220" as="sourcePoint" />
            <mxPoint x="640" y="170" as="targetPoint" />
          </mxGeometry>
        </mxCell>

        <mxCell id="arrow5" value="" style="endArrow=classic;html=1;rounded=0;entryX=0.5;entryY=0;entryDx=0;entryDy=0;exitX=0.5;exitY=1;exitDx=0;exitDy=0;strokeWidth=2;strokeColor=#82b366;" edge="1" parent="1" source="github-copilot" target="step-definitions">
          <mxGeometry width="50" height="50" relative="1" as="geometry">
            <mxPoint x="450" y="220" as="sourcePoint" />
            <mxPoint x="500" y="170" as="targetPoint" />
          </mxGeometry>
        </mxCell>

        <mxCell id="arrow6" value="" style="endArrow=classic;html=1;rounded=0;entryX=0.5;entryY=0;entryDx=0;entryDy=0;exitX=0.5;exitY=1;exitDx=0;exitDy=0;strokeWidth=2;strokeColor=#82b366;" edge="1" parent="1" source="playwright-mcp" target="page-objects">
          <mxGeometry width="50" height="50" relative="1" as="geometry">
            <mxPoint x="710" y="220" as="sourcePoint" />
            <mxPoint x="760" y="170" as="targetPoint" />
          </mxGeometry>
        </mxCell>

        <!-- Generated Components to Execution -->
        <mxCell id="arrow7" value="" style="endArrow=classic;html=1;rounded=0;entryX=0.5;entryY=0;entryDx=0;entryDy=0;exitX=0.5;exitY=1;exitDx=0;exitDy=0;strokeWidth=2;strokeColor=#d79b00;" edge="1" parent="1" source="feature-files" target="cucumber-engine">
          <mxGeometry width="50" height="50" relative="1" as="geometry">
            <mxPoint x="445" y="320" as="sourcePoint" />
            <mxPoint x="495" y="270" as="targetPoint" />
          </mxGeometry>
        </mxCell>

        <mxCell id="arrow8" value="" style="endArrow=classic;html=1;rounded=0;entryX=0.5;entryY=0;entryDx=0;entryDy=0;exitX=0.5;exitY=1;exitDx=0;exitDy=0;strokeWidth=2;strokeColor=#d79b00;" edge="1" parent="1" source="step-definitions" target="playwright-engine">
          <mxGeometry width="50" height="50" relative="1" as="geometry">
            <mxPoint x="575" y="320" as="sourcePoint" />
            <mxPoint x="625" y="270" as="targetPoint" />
          </mxGeometry>
        </mxCell>

        <mxCell id="arrow9" value="" style="endArrow=classic;html=1;rounded=0;entryX=0.5;entryY=0;entryDx=0;entryDy=0;exitX=0.5;exitY=1;exitDx=0;exitDy=0;strokeWidth=2;strokeColor=#d79b00;" edge="1" parent="1" source="page-objects" target="test-runner">
          <mxGeometry width="50" height="50" relative="1" as="geometry">
            <mxPoint x="705" y="320" as="sourcePoint" />
            <mxPoint x="755" y="270" as="targetPoint" />
          </mxGeometry>
        </mxCell>

        <!-- Execution to Target App -->
        <mxCell id="arrow10" value="" style="endArrow=classic;html=1;rounded=0;entryX=0.5;entryY=0;entryDx=0;entryDy=0;exitX=0.5;exitY=1;exitDx=0;exitDy=0;strokeWidth=2;strokeColor=#0277bd;" edge="1" parent="1" source="playwright-engine" target="target-app">
          <mxGeometry width="50" height="50" relative="1" as="geometry">
            <mxPoint x="580" y="540" as="sourcePoint" />
            <mxPoint x="630" y="490" as="targetPoint" />
          </mxGeometry>
        </mxCell>

        <!-- Execution to Outputs -->
        <mxCell id="arrow11" value="" style="endArrow=classic;html=1;rounded=0;entryX=0;entryY=0.5;entryDx=0;entryDy=0;exitX=1;exitY=0.5;exitDx=0;exitDy=0;strokeWidth=2;strokeColor=#b85450;" edge="1" parent="1" source="test-runner" target="html-reports">
          <mxGeometry width="50" height="50" relative="1" as="geometry">
            <mxPoint x="770" y="505" as="sourcePoint" />
            <mxPoint x="820" y="455" as="targetPoint" />
          </mxGeometry>
        </mxCell>

        <mxCell id="arrow12" value="" style="endArrow=classic;html=1;rounded=0;entryX=0;entryY=0.5;entryDx=0;entryDy=0;exitX=1;exitY=0.5;exitDx=0;exitDy=0;strokeWidth=2;strokeColor=#b85450;" edge="1" parent="1" source="test-runner" target="logs">
          <mxGeometry width="50" height="50" relative="1" as="geometry">
            <mxPoint x="770" y="505" as="sourcePoint" />
            <mxPoint x="820" y="455" as="targetPoint" />
          </mxGeometry>
        </mxCell>

        <mxCell id="arrow13" value="" style="endArrow=classic;html=1;rounded=0;entryX=0;entryY=0.5;entryDx=0;entryDy=0;exitX=1;exitY=0.5;exitDx=0;exitDy=0;strokeWidth=2;strokeColor=#b85450;" edge="1" parent="1" source="test-runner" target="screenshots">
          <mxGeometry width="50" height="50" relative="1" as="geometry">
            <mxPoint x="770" y="505" as="sourcePoint" />
            <mxPoint x="820" y="455" as="targetPoint" />
          </mxGeometry>
        </mxCell>

        <!-- Labels for Flow Sections -->
        <mxCell id="label1" value="AI Generation" style="text;html=1;align=center;verticalAlign=middle;whiteSpace=wrap;rounded=0;fontSize=10;fontStyle=2;fillColor=#fff2cc;strokeColor=none;" vertex="1" parent="1">
          <mxGeometry x="300" y="150" width="70" height="20" as="geometry" />
        </mxCell>

        <mxCell id="label2" value="Test Execution" style="text;html=1;align=center;verticalAlign=middle;whiteSpace=wrap;rounded=0;fontSize=10;fontStyle=2;fillColor=#ffe6cc;strokeColor=none;" vertex="1" parent="1">
          <mxGeometry x="545" y="580" width="70" height="20" as="geometry" />
        </mxCell>

        <mxCell id="label3" value="Results &amp; Evidence" style="text;html=1;align=center;verticalAlign=middle;whiteSpace=wrap;rounded=0;fontSize=10;fontStyle=2;fillColor=#f8cecc;strokeColor=none;" vertex="1" parent="1">
          <mxGeometry x="800" y="270" width="80" height="20" as="geometry" />
        </mxCell>

        <!-- Legend -->
        <mxCell id="legend" value="LEGEND" style="rounded=1;whiteSpace=wrap;html=1;fontSize=12;fontStyle=1;fillColor=#f5f5f5;strokeColor=#666666;verticalAlign=top;" vertex="1" parent="1">
          <mxGeometry x="80" y="450" width="200" height="200" as="geometry" />
        </mxCell>

        <mxCell id="legend-input" value="🔵 Input Layer" style="text;html=1;align=left;verticalAlign=middle;whiteSpace=wrap;rounded=0;fontSize=10;fillColor=#dae8fc;strokeColor=#6c8ebf;" vertex="1" parent="1">
          <mxGeometry x="90" y="480" width="180" height="20" as="geometry" />
        </mxCell>

        <mxCell id="legend-ai" value="🟡 AI Generation" style="text;html=1;align=left;verticalAlign=middle;whiteSpace=wrap;rounded=0;fontSize=10;fillColor=#fff2cc;strokeColor=#d6b656;" vertex="1" parent="1">
          <mxGeometry x="90" y="510" width="180" height="20" as="geometry" />
        </mxCell>

        <mxCell id="legend-generated" value="🟢 Generated Assets" style="text;html=1;align=left;verticalAlign=middle;whiteSpace=wrap;rounded=0;fontSize=10;fillColor=#d5e8d4;strokeColor=#82b366;" vertex="1" parent="1">
          <mxGeometry x="90" y="540" width="180" height="20" as="geometry" />
        </mxCell>

        <mxCell id="legend-execution" value="🟠 Execution Layer" style="text;html=1;align=left;verticalAlign=middle;whiteSpace=wrap;rounded=0;fontSize=10;fillColor=#ffe6cc;strokeColor=#d79b00;" vertex="1" parent="1">
          <mxGeometry x="90" y="570" width="180" height="20" as="geometry" />
        </mxCell>

        <mxCell id="legend-output" value="🔴 Output Layer" style="text;html=1;align=left;verticalAlign=middle;whiteSpace=wrap;rounded=0;fontSize=10;fillColor=#f8cecc;strokeColor=#b85450;" vertex="1" parent="1">
          <mxGeometry x="90" y="600" width="180" height="20" as="geometry" />
        </mxCell>

        <mxCell id="legend-target" value="🔷 Target Application" style="text;html=1;align=left;verticalAlign=middle;whiteSpace=wrap;rounded=0;fontSize=10;fillColor=#e1f5fe;strokeColor=#0277bd;" vertex="1" parent="1">
          <mxGeometry x="90" y="630" width="180" height="20" as="geometry" />
        </mxCell>

      </root>
    </mxGraphModel>
  </diagram>
</mxfile>